<svg width="100" height="100" viewBox="0 0 100 100" fill="none" xmlns="http://www.w3.org/2000/svg">
<path d="M26.6665 19.3333L63.6665 8.33325L68.3332 9.33325L87.3332 70.3333L84.9998 74.3333L34.3332 89.6666L30.9998 87.3333L15.6665 36.9999L12.6665 26.9999L13.3332 23.6666L17.6665 22.6666V35.9999L19.6665 38.6666L24.3332 39.6666L26.6665 35.9999V19.3333Z" fill="#FFD9C3"/>
<path d="M31 87.6667L13 31V89.6667L17 92.3333H67.6667L71.6667 89.6667V78.3333L35 89.6667L31 87.6667Z" fill="#55ACEE"/>
<path d="M71.501 87.0007C70.8 86.9137 70.1622 87.4117 70.0752 88.1126C69.8876 89.6305 68.5914 90.7749 67.0581 90.7749H16.9326C15.2561 90.7749 13.8916 89.4123 13.8916 87.734V35.9491L20.8486 58.885C21.0156 59.4375 21.524 59.794 22.0714 59.794C22.1941 59.794 22.3204 59.7752 22.4431 59.7378C23.1202 59.5332 23.5022 58.8185 23.2959 58.1431L16.9138 37.1003C17.7837 39.2647 19.9054 40.7979 22.38 40.7979C25.6273 40.7979 28.2708 38.1544 28.2708 34.9071C28.2708 32.6346 28.2708 21.9709 28.2708 20.2139C36.7942 17.627 47.0303 14.5238 56.5144 11.647C57.1898 11.4406 57.5719 10.7277 57.3672 10.0506C57.1609 9.37518 56.4462 8.99313 55.7708 9.19779L32.1065 16.3763C30.7403 13.6986 27.9553 11.8618 24.7472 11.8618C20.1935 11.8618 16.4891 15.5662 16.4891 20.1199V21.1142L15.3464 21.4604C12.9689 22.1803 11.3725 24.3328 11.3725 26.816L11.3333 28.3305V87.7341C11.3333 90.8229 13.8454 93.3333 16.9324 93.3333H67.0579C69.8805 93.3333 72.2683 91.2235 72.6145 88.4265C72.702 87.7255 72.2021 87.086 71.501 87.0007ZM19.0477 20.1201C19.0477 16.9769 21.6042 14.4202 24.7476 14.4202C26.7976 14.4202 28.5987 15.5083 29.6015 17.1372L27.3945 17.8058C25.3661 15.4725 21.5128 16.6321 21.1301 19.7057C21.085 20.0585 21.1008 32.3717 21.1011 32.8435C21.1011 33.5495 21.6741 34.1227 22.3803 34.1227C23.0865 34.1227 23.6595 33.5497 23.6595 32.8435C23.6595 31.9015 23.6595 20.7119 23.6595 20.1526C23.6595 19.5864 24.1199 19.1258 24.6863 19.1258C25.2527 19.1258 25.7131 19.5862 25.7131 20.1526C25.7131 21.9058 25.7131 32.9565 25.7131 34.9071C25.7131 36.7438 24.2174 38.2397 22.3805 38.2397C20.5435 38.2397 19.0478 36.744 19.0478 34.9071C19.0477 31.7498 19.0477 23.3151 19.0477 20.1201ZM14.8213 24.6756C14.823 24.6722 14.8247 24.6705 14.8264 24.6722C14.943 24.5924 15.5048 24.0085 16.4893 23.8688C16.5308 35.3639 16.3957 35.0604 16.612 36.106L14.0624 27.7011C13.7251 26.5768 14.0606 25.441 14.8213 24.6756Z" fill="#040325"/>
<path d="M70.2967 10.6432C69.3726 7.5976 66.1994 6.02743 63.3142 6.91154L60.6673 7.71322C59.9919 7.91956 59.6098 8.63253 59.8145 9.30962C60.0191 9.98502 60.7338 10.3671 61.4092 10.1624C63.9176 9.43742 64.1931 9.22786 64.9414 9.22786C66.2666 9.22786 67.4639 10.1147 67.8493 11.3871L71.5248 23.5067L72.6572 27.2384L85.5134 69.6243C86.0158 71.2669 85.0425 72.9455 83.4872 73.4173C32.2483 88.9592 35.3219 88.0985 34.6357 88.0985C33.3088 88.0985 32.1132 87.2117 31.7278 85.9392L24.7812 63.0391C24.5765 62.3637 23.8619 61.9816 23.1865 62.1863C22.5094 62.3926 22.129 63.1073 22.3337 63.7827L29.2786 86.6829C30 89.0603 32.1523 90.6567 34.6357 90.6567C35.1848 90.6567 35.7324 90.5748 36.2628 90.4145L70.0988 80.1506V83.1557C70.0988 83.8618 70.6701 84.4349 71.378 84.4349C72.084 84.4349 72.6572 83.8619 72.6572 83.1557V79.3745L84.2292 75.8645C86.6066 75.143 88.2047 72.9907 88.2047 70.509C88.2047 68.9524 88.8356 72.0494 70.2967 10.6432Z" fill="#040325"/>
<path d="M50.1146 37.7771C49.0333 34.2121 46.1733 34.0418 44.4647 33.9404C42.9217 33.8273 41.8494 33.8983 41.5002 32.7465C41.1649 31.641 41.9435 31.0694 43.0514 30.7332C44.6718 30.2416 45.2354 30.8822 46.014 30.6459C46.9298 30.3681 47.1532 29.281 46.9574 28.6359C46.5408 27.2624 44.4464 27.404 43.3244 27.5868L43.1685 27.0725C42.9119 26.2263 42.0148 25.7468 41.1686 26.0034C40.3224 26.26 39.8428 27.1572 40.0996 28.0035L40.3139 28.7097C38.5278 29.8843 37.8962 31.6679 38.535 33.7742C39.4554 36.8082 41.8736 36.9655 43.8167 37.0918C45.7549 37.2177 46.706 37.343 47.1495 38.805C47.5309 40.0623 47.0545 40.8464 45.6506 41.2721C43.3884 41.9582 43.0487 40.2891 41.815 40.6634C41.0029 40.9097 40.6303 41.9494 40.8517 42.6794C41.215 43.8772 43.0658 44.6345 45.093 44.4663L45.2477 44.9761C45.5043 45.8223 46.4015 46.3019 47.2478 46.0451C48.094 45.7885 48.5736 44.8913 48.3168 44.045L48.1519 43.5013C50.1466 42.3037 50.862 40.2411 50.1146 37.7771Z" fill="#040325"/>
<path d="M69.7687 44.4898C69.5637 43.8137 68.8489 43.4322 68.1733 43.637L31.7089 54.6978C31.033 54.9029 30.6512 55.6172 30.8562 56.2931C31.0603 56.966 31.7721 57.3518 32.4515 57.1459L68.9159 46.0852C69.592 45.8798 69.9738 45.1657 69.7687 44.4898Z" fill="#6C6D84"/>
<path d="M71.8987 51.5082C71.6922 50.8328 70.9776 50.4508 70.3023 50.6554L70.0994 50.7169L33.8382 61.7159C33.1628 61.9222 32.7807 62.6352 32.9854 63.3123C33.1912 63.9905 33.9093 64.3678 34.5818 64.1651C34.6018 64.1591 70.9723 53.127 71.046 53.1046C71.7214 52.8981 72.1034 52.1836 71.8987 51.5082Z" fill="#6C6D84"/>
<path d="M74.0271 58.5258C73.8257 57.8636 73.1261 57.4681 72.4324 57.673L70.0993 58.3808L35.9665 68.735C34.5649 69.1597 34.875 71.2387 36.3382 71.2387C36.461 71.2387 36.5855 71.2199 36.71 71.1825C44.8271 68.7204 64.5566 62.736 73.1741 60.1221C73.8497 59.9176 74.2317 59.2029 74.0271 58.5258Z" fill="#6C6D84"/>
<path d="M76.1558 65.5457C75.9511 64.8703 75.2365 64.4883 74.5611 64.6929L72.6578 65.2711C40.4178 75.0495 38.2081 75.7195 38.1003 75.7523C38.1 75.7523 38.0998 75.7525 38.0994 75.7525L38.1 75.7523C38.0988 75.7527 38.0978 75.753 38.0971 75.7532L38.0976 75.753C38.0972 75.753 38.0969 75.7532 38.0969 75.7532C36.6925 76.1779 37.0065 78.257 38.4669 78.257C38.755 78.257 36.6119 78.8835 75.303 67.1404C75.9801 66.9356 76.3621 66.2209 76.1558 65.5457Z" fill="#6C6D84"/>
<path d="M38.0999 79.2173H38.4148C40.3054 76.7478 41.5666 75.7506 41.5666 75.7506C41.0939 76.2445 39.6754 77.7356 38.0999 79.2173Z" fill="#040325"/>
</svg>
