<svg width="100" height="100" viewBox="0 0 100 100" fill="none" xmlns="http://www.w3.org/2000/svg">
<circle cx="50.8271" cy="50.173" r="33.0192" fill="#FFD9C3"/>
<path d="M89.5759 34.1744C87.393 29.1446 84.2875 24.5958 80.3458 20.6542C76.4043 16.7127 71.8554 13.6072 66.8256 11.4241C61.5913 9.15198 56.0985 8 50.5 8C44.9015 8 39.4087 9.15198 34.1744 11.4241C29.1446 13.6072 24.5958 16.7127 20.6542 20.6542C16.7127 24.5958 13.6072 29.1446 11.4241 34.1744C9.15198 39.4087 8 44.9015 8 50.5C8 56.0985 9.15198 61.5913 11.4241 66.8256C13.6072 71.8554 16.7127 76.4043 20.6542 80.3458C24.5958 84.2873 29.1446 87.3928 34.1744 89.5759C39.4087 91.848 44.9015 93 50.5 93C56.0985 93 61.5913 91.848 66.8256 89.5759C71.8554 87.3928 76.4043 84.2873 80.3458 80.3458C84.2873 76.4043 87.3928 71.8554 89.5759 66.8256C91.848 61.5913 93 56.0985 93 50.5C93 44.9015 91.848 39.4087 89.5759 34.1744ZM50.5 89.6797C29.2625 89.6797 11.3203 71.7375 11.3203 50.5C11.3203 29.2625 29.2625 11.3203 50.5 11.3203C71.7375 11.3203 89.6797 29.2625 89.6797 50.5C89.6797 71.7375 71.7375 89.6797 50.5 89.6797Z" fill="#040325"/>
<path d="M83.0349 36.8542C81.2303 32.6613 78.6582 28.8781 75.3901 25.6101C72.1219 22.3418 68.3389 19.7698 64.1458 17.9651C59.7882 16.0896 55.1971 15.1387 50.5 15.1387C44.1147 15.1387 37.4586 17.3191 31.2513 21.4441C30.4876 21.9516 30.28 22.9821 30.7875 23.7456C31.295 24.5093 32.3256 24.7168 33.0889 24.2094C38.7501 20.4475 44.7706 18.459 50.5 18.459C67.8681 18.459 82.541 33.1319 82.541 50.5C82.541 67.8681 67.8681 82.541 50.5 82.541C33.1319 82.541 18.459 67.8681 18.459 50.5C18.459 44.7718 20.447 38.7509 24.2079 33.0888C24.7153 32.3249 24.5074 31.2946 23.7438 30.7873C22.9798 30.28 21.9495 30.488 21.4423 31.2517C17.3185 37.4601 15.1387 44.116 15.1387 50.5C15.1387 55.1971 16.0896 59.7882 17.9651 64.1458C19.7697 68.3387 22.3418 72.1219 25.6099 75.3899C28.8781 78.6581 32.6611 81.2302 36.854 83.0347C41.2118 84.9104 45.8029 85.8613 50.5 85.8613C55.1971 85.8613 59.7882 84.9104 64.1458 83.0349C68.3387 81.2303 72.1219 78.6582 75.3899 75.3901C78.6581 72.1219 81.2302 68.3389 83.0347 64.146C84.9104 59.7882 85.8613 55.1971 85.8613 50.5C85.8613 45.8029 84.9104 41.2118 83.0349 36.8542Z" fill="#6C6D84"/>
<path d="M38.4038 33.1731C37.3141 34.2628 35.0692 36.5731 34.8077 37.0962V42L43.9615 50.1731L34.1538 60.6346L34.4807 65.5385L40.0384 67.1731L50.5 58.3462L59.6538 66.5192H65.5384L67.5 61.6154L57.0384 50.8269L66.5192 42L65.5384 35.4616C63.7948 35.0257 60.1115 34.1539 59.3269 34.1539C58.5423 34.1539 53.1153 40.2564 50.5 43.3077L38.4038 33.1731Z" fill="#FF8A71"/>
<path d="M59.8902 50.5L66.8157 43.5745C68.0706 42.3206 68.7617 40.6531 68.7617 38.8789C68.7617 37.1047 68.0706 35.4372 66.8162 34.1838C65.5616 32.9292 63.8943 32.2383 62.1211 32.2383C60.3479 32.2383 58.6806 32.9292 57.426 34.1838L50.5 41.1098L43.574 34.1838C42.3194 32.9292 40.6521 32.2383 38.8789 32.2383C37.1057 32.2383 35.4384 32.9292 34.1843 34.1833C32.9294 35.4372 32.2383 37.1047 32.2383 38.8789C32.2383 40.6531 32.9294 42.3206 34.1838 43.574L41.1098 50.5L34.1843 57.4255C32.9294 58.6794 32.2383 60.3469 32.2383 62.1211C32.2383 63.8953 32.9294 65.5628 34.1838 66.8162C35.4384 68.0708 37.1059 68.7617 38.8789 68.7617C40.652 68.7617 42.3194 68.0708 43.574 66.8162L50.5 59.8902L57.426 66.8162C58.6806 68.0708 60.348 68.7617 62.1211 68.7617C63.8941 68.7617 65.5616 68.0708 66.8157 66.8167C68.0706 65.5628 68.7617 63.8953 68.7617 62.1211C68.7617 60.3469 68.0706 58.6794 66.8162 57.426L59.8902 50.5ZM64.4684 64.4684C63.8409 65.0958 63.0073 65.4414 62.1211 65.4414C61.2349 65.4414 60.4013 65.0958 59.7738 64.4684L51.6739 56.3685C51.3497 56.0443 50.9248 55.8822 50.5 55.8822C50.0752 55.8822 49.6502 56.0443 49.3261 56.3685L41.2262 64.4684C40.5987 65.0958 39.7651 65.4414 38.8789 65.4414C37.9927 65.4414 37.1592 65.0958 36.5311 64.4679C35.9041 63.8412 35.5586 63.0078 35.5586 62.1211C35.5586 61.2344 35.9041 60.401 36.5316 59.7738L44.6315 51.6739C45.2798 51.0256 45.2798 49.9744 44.6315 49.3261L36.5311 41.2257C35.9041 40.599 35.5586 39.7656 35.5586 38.8789C35.5586 37.9922 35.9041 37.1588 36.5316 36.5316C37.1591 35.9042 37.9927 35.5586 38.8789 35.5586C39.7651 35.5586 40.5987 35.9042 41.2262 36.5316L49.3261 44.6315C49.9744 45.2798 51.0256 45.2798 51.6741 44.6315L59.774 36.5314C60.4013 35.9042 61.2349 35.5586 62.1211 35.5586C63.0073 35.5586 63.8408 35.9042 64.4689 36.5321C65.0959 37.1588 65.4414 37.9922 65.4414 38.8789C65.4414 39.7656 65.0959 40.599 64.4684 41.2262L56.3685 49.3263C55.7202 49.9746 55.7202 51.0258 56.3685 51.6741L64.4689 59.7745C65.0959 60.401 65.4414 61.2344 65.4414 62.1211C65.4414 63.0078 65.0959 63.8412 64.4684 64.4684Z" fill="#040325"/>
<path d="M26.9258 25.4316C26.0094 25.4316 25.2656 26.1754 25.2656 27.0918C25.2656 28.0082 26.0094 28.752 26.9258 28.752C27.8422 28.752 28.5859 28.0082 28.5859 27.0918C28.5859 26.1754 27.8422 25.4316 26.9258 25.4316Z" fill="#040325"/>
</svg>
