<svg width="24" height="24" viewBox="0 0 24 24" fill="none" xmlns="http://www.w3.org/2000/svg">
<path d="M4.66895 6.45273C4.66895 5.46757 5.46757 4.66895 6.45273 4.66895H9.12841C10.1136 4.66895 10.9122 5.46757 10.9122 6.45273C10.9122 7.43789 10.1136 8.23651 9.12841 8.23651H6.45273C5.46757 8.23651 4.66895 7.43789 4.66895 6.45273Z" fill="#FF8A71"/>
<path fill-rule="evenodd" clip-rule="evenodd" d="M4 6.4527C4 5.09812 5.09812 4 6.4527 4H9.12838C10.483 4 11.5811 5.09812 11.5811 6.4527C11.5811 7.80729 10.483 8.90541 9.12838 8.90541H6.4527C5.09812 8.90541 4 7.80729 4 6.4527ZM6.4527 5.33784C5.83698 5.33784 5.33784 5.83698 5.33784 6.4527C5.33784 7.06843 5.83698 7.56757 6.4527 7.56757H9.12838C9.74411 7.56757 10.2432 7.06843 10.2432 6.4527C10.2432 5.83698 9.74411 5.33784 9.12838 5.33784H6.4527Z" fill="#FF8A71"/>
<path d="M4.66895 13.1418C4.66895 11.9104 5.66723 10.9121 6.89868 10.9121H8.68246C9.9139 10.9121 10.9122 11.9104 10.9122 13.1418V17.6013C10.9122 18.8327 9.9139 19.831 8.68246 19.831H6.89868C5.66723 19.831 4.66895 18.8327 4.66895 17.6013V13.1418Z" fill="#FF8A71"/>
<path fill-rule="evenodd" clip-rule="evenodd" d="M4 13.1419C4 11.5411 5.29777 10.2433 6.89865 10.2433H8.68243C10.2833 10.2433 11.5811 11.5411 11.5811 13.1419V17.6014C11.5811 19.2023 10.2833 20.5 8.68243 20.5H6.89865C5.29777 20.5 4 19.2023 4 17.6014V13.1419ZM6.89865 11.5811C6.03664 11.5811 5.33784 12.2799 5.33784 13.1419V17.6014C5.33784 18.4634 6.03664 19.1622 6.89865 19.1622H8.68243C9.54445 19.1622 10.2432 18.4634 10.2432 17.6014V13.1419C10.2432 12.2799 9.54445 11.5811 8.68243 11.5811H6.89865Z" fill="#FF8A71"/>
<path d="M13.5879 6.89867C13.5879 5.66723 14.5862 4.66895 15.8176 4.66895H17.6014C18.8328 4.66895 19.8311 5.66723 19.8311 6.89867V11.3581C19.8311 12.5896 18.8328 13.5879 17.6014 13.5879H15.8176C14.5862 13.5879 13.5879 12.5896 13.5879 11.3581V6.89867Z" fill="#FF8A71"/>
<path fill-rule="evenodd" clip-rule="evenodd" d="M12.9189 6.89865C12.9189 5.29777 14.2167 4 15.8176 4H17.6014C19.2022 4 20.5 5.29777 20.5 6.89865V11.3581C20.5 12.959 19.2022 14.2568 17.6014 14.2568H15.8176C14.2167 14.2568 12.9189 12.959 12.9189 11.3581V6.89865ZM15.8176 5.33784C14.9556 5.33784 14.2568 6.03664 14.2568 6.89865V11.3581C14.2568 12.2201 14.9556 12.9189 15.8176 12.9189H17.6014C18.4634 12.9189 19.1622 12.2201 19.1622 11.3581V6.89865C19.1622 6.03664 18.4634 5.33784 17.6014 5.33784H15.8176Z" fill="#FF8A71"/>
<path d="M13.5879 18.0473C13.5879 17.0621 14.3865 16.2635 15.3717 16.2635H18.0474C19.0325 16.2635 19.8311 17.0621 19.8311 18.0473C19.8311 19.0325 19.0325 19.8311 18.0474 19.8311H15.3717C14.3865 19.8311 13.5879 19.0325 13.5879 18.0473Z" fill="#FF8A71"/>
<path fill-rule="evenodd" clip-rule="evenodd" d="M12.9189 18.0473C12.9189 16.6927 14.017 15.5946 15.3716 15.5946H18.0473C19.4019 15.5946 20.5 16.6927 20.5 18.0473C20.5 19.4019 19.4019 20.5 18.0473 20.5H15.3716C14.017 20.5 12.9189 19.4019 12.9189 18.0473ZM15.3716 16.9324C14.7559 16.9324 14.2568 17.4315 14.2568 18.0473C14.2568 18.6631 14.7559 19.1622 15.3716 19.1622H18.0473C18.6631 19.1622 19.1622 18.6631 19.1622 18.0473C19.1622 17.4315 18.6631 16.9324 18.0473 16.9324H15.3716Z" fill="#FF8A71"/>
</svg>
