<svg width="52" height="52" viewBox="0 0 52 52" fill="none" xmlns="http://www.w3.org/2000/svg">
<path d="M10 26C10 17.1634 17.1634 10 26 10C34.8366 10 42 17.1634 42 26C42 34.8366 34.8366 42 26 42C17.1634 42 10 34.8366 10 26ZM26 2C12.7452 2 2 12.7452 2 26C2 39.2548 12.7452 50 26 50C39.2548 50 50 39.2548 50 26C50 12.7452 39.2548 2 26 2Z" fill="#6C6D84" fill-opacity="0.1" stroke="white" stroke-width="4"/>
<path d="M26 46C37.0457 46 46 37.0457 46 26C46 14.9543 37.0457 6 26 6" stroke="#FF8A71" stroke-width="4" stroke-linecap="round"/>
<path d="M19.598 31.168C19.0193 31.168 18.5013 31.0653 18.044 30.86C17.5867 30.6453 17.2273 30.356 16.966 29.992C16.7047 29.628 16.574 29.2033 16.574 28.718C16.574 28.1673 16.7373 27.7053 17.064 27.332C17.3907 26.9587 17.764 26.66 18.184 26.436V26.38C17.8387 26.1373 17.5447 25.848 17.302 25.512C17.0687 25.1667 16.952 24.7607 16.952 24.294C16.952 23.8087 17.0687 23.3933 17.302 23.048C17.5353 22.6933 17.8527 22.418 18.254 22.222C18.6647 22.026 19.1267 21.928 19.64 21.928C20.4427 21.928 21.0773 22.152 21.544 22.6C22.02 23.0387 22.258 23.6173 22.258 24.336C22.258 24.7747 22.132 25.1713 21.88 25.526C21.628 25.8807 21.3573 26.1653 21.068 26.38V26.436C21.4787 26.6693 21.838 26.9633 22.146 27.318C22.454 27.6727 22.608 28.1487 22.608 28.746C22.608 29.2033 22.482 29.614 22.23 29.978C21.978 30.342 21.628 30.6313 21.18 30.846C20.732 31.0607 20.2047 31.168 19.598 31.168ZM20.186 25.974C20.4287 25.7313 20.6107 25.484 20.732 25.232C20.8627 24.98 20.928 24.714 20.928 24.434C20.928 24.042 20.8113 23.72 20.578 23.468C20.3447 23.2067 20.0227 23.076 19.612 23.076C19.2667 23.076 18.9773 23.1833 18.744 23.398C18.5107 23.6127 18.394 23.9113 18.394 24.294C18.394 24.5927 18.4733 24.8447 18.632 25.05C18.7907 25.246 19.0053 25.4187 19.276 25.568C19.556 25.708 19.8593 25.8433 20.186 25.974ZM19.626 30.02C20.0553 30.02 20.4053 29.9033 20.676 29.67C20.956 29.4273 21.096 29.1007 21.096 28.69C21.096 28.3633 20.998 28.0973 20.802 27.892C20.6153 27.6867 20.3587 27.5093 20.032 27.36C19.7147 27.2013 19.3553 27.0427 18.954 26.884C18.674 27.0893 18.4407 27.332 18.254 27.612C18.0767 27.892 17.988 28.2047 17.988 28.55C17.988 28.9887 18.1467 29.3433 18.464 29.614C18.7813 29.8847 19.1687 30.02 19.626 30.02ZM25.7817 27.472C25.1377 27.472 24.6104 27.22 24.1997 26.716C23.7984 26.2027 23.5977 25.484 23.5977 24.56C23.5977 23.6453 23.7984 22.936 24.1997 22.432C24.6104 21.928 25.1377 21.676 25.7817 21.676C26.4257 21.676 26.9484 21.928 27.3497 22.432C27.7604 22.936 27.9657 23.6453 27.9657 24.56C27.9657 25.484 27.7604 26.2027 27.3497 26.716C26.9484 27.22 26.4257 27.472 25.7817 27.472ZM25.7817 26.534C26.0804 26.534 26.3231 26.3753 26.5097 26.058C26.7057 25.7407 26.8037 25.2413 26.8037 24.56C26.8037 23.8693 26.7057 23.3747 26.5097 23.076C26.3231 22.768 26.0804 22.614 25.7817 22.614C25.4924 22.614 25.2497 22.768 25.0537 23.076C24.8577 23.3747 24.7597 23.8693 24.7597 24.56C24.7597 25.2413 24.8577 25.7407 25.0537 26.058C25.2497 26.3753 25.4924 26.534 25.7817 26.534ZM26.0757 31.168L31.0737 21.676H32.0537L27.0697 31.168H26.0757ZM32.3477 31.168C31.7037 31.168 31.1764 30.916 30.7657 30.412C30.3644 29.8987 30.1637 29.18 30.1637 28.256C30.1637 27.3413 30.3644 26.632 30.7657 26.128C31.1764 25.624 31.7037 25.372 32.3477 25.372C32.9917 25.372 33.5144 25.624 33.9157 26.128C34.3264 26.632 34.5317 27.3413 34.5317 28.256C34.5317 29.18 34.3264 29.8987 33.9157 30.412C33.5144 30.916 32.9917 31.168 32.3477 31.168ZM32.3477 30.23C32.6464 30.23 32.8891 30.0713 33.0757 29.754C33.2717 29.4367 33.3697 28.9373 33.3697 28.256C33.3697 27.5653 33.2717 27.0707 33.0757 26.772C32.8891 26.464 32.6464 26.31 32.3477 26.31C32.0584 26.31 31.8157 26.464 31.6197 26.772C31.4237 27.0707 31.3257 27.5653 31.3257 28.256C31.3257 28.9373 31.4237 29.4367 31.6197 29.754C31.8157 30.0713 32.0584 30.23 32.3477 30.23Z" fill="#FF8A71"/>
</svg>
