<svg width="16" height="16" viewBox="0 0 16 16" fill="none" xmlns="http://www.w3.org/2000/svg">
<g clip-path="url(#clip0_3178_679)">
<path d="M9.41329 9.41332C9.23019 9.60982 9.00939 9.76743 8.76406 9.87674C8.51873 9.98605 8.25389 10.0448 7.98535 10.0496C7.71681 10.0543 7.45007 10.0049 7.20103 9.90432C6.952 9.80373 6.72577 9.65401 6.53586 9.46409C6.34594 9.27418 6.19622 9.04795 6.09563 8.79892C5.99504 8.54988 5.94564 8.28314 5.95038 8.0146C5.95512 7.74606 6.0139 7.48122 6.12321 7.23589C6.23252 6.99056 6.39013 6.76976 6.58663 6.58666M11.96 11.96C10.8204 12.8287 9.4327 13.3099 7.99996 13.3333C3.33329 13.3333 0.666626 7.99999 0.666626 7.99999C1.49589 6.45459 2.64605 5.1044 4.03996 4.03999L11.96 11.96ZM6.59996 2.82666C7.05885 2.71924 7.52867 2.66555 7.99996 2.66666C12.6666 2.66666 15.3333 7.99999 15.3333 7.99999C14.9286 8.75706 14.446 9.46982 13.8933 10.1267L6.59996 2.82666Z" stroke="#6C6D84" stroke-linecap="round" stroke-linejoin="round"/>
<path d="M0.666626 0.666672L15.3333 15.3333" stroke="#6C6D84" stroke-linecap="round" stroke-linejoin="round"/>
</g>
<defs>
<clipPath id="clip0_3178_679">
<rect width="16" height="16" fill="white"/>
</clipPath>
</defs>
</svg>
