<svg width="40" height="40" viewBox="0 0 40 40" fill="none" xmlns="http://www.w3.org/2000/svg">
<rect width="40" height="40" rx="20" fill="white"/>
<g clip-path="url(#clip0_3369_1680)">
<path d="M14.6667 22.6667C14.83 22.6667 14.9876 22.7266 15.1096 22.8351C15.2316 22.9437 15.3096 23.0932 15.3287 23.2553L15.3333 23.3333V24.6667H16.6667C16.8366 24.6669 17 24.7319 17.1236 24.8486C17.2471 24.9652 17.3215 25.1246 17.3314 25.2943C17.3414 25.4639 17.2862 25.6309 17.1772 25.7612C17.0681 25.8915 16.9134 25.9753 16.7447 25.9953L16.6667 26H15.3333C14.9969 26.0001 14.673 25.8731 14.4263 25.6443C14.1796 25.4156 14.0286 25.1021 14.0033 24.7667L14 24.6667V23.3333C14 23.1565 14.0702 22.987 14.1953 22.8619C14.3203 22.7369 14.4899 22.6667 14.6667 22.6667ZM25.3333 22.6667C25.5101 22.6667 25.6797 22.7369 25.8047 22.8619C25.9298 22.987 26 23.1565 26 23.3333V24.6667C26 25.0203 25.8595 25.3594 25.6095 25.6095C25.3594 25.8595 25.0203 26 24.6667 26H23.3333C23.1565 26 22.987 25.9298 22.8619 25.8047C22.7369 25.6797 22.6667 25.5101 22.6667 25.3333C22.6667 25.1565 22.7369 24.987 22.8619 24.8619C22.987 24.7369 23.1565 24.6667 23.3333 24.6667H24.6667V23.3333C24.6667 23.1565 24.7369 22.987 24.8619 22.8619C24.987 22.7369 25.1565 22.6667 25.3333 22.6667ZM21.8667 21.238C21.9289 21.1753 22.0029 21.1255 22.0845 21.0916C22.1661 21.0577 22.2536 21.0404 22.342 21.0407C22.4303 21.0409 22.5177 21.0587 22.5991 21.093C22.6806 21.1274 22.7543 21.1775 22.8162 21.2406C22.878 21.3037 22.9267 21.3785 22.9594 21.4605C22.9921 21.5426 23.0082 21.6304 23.0067 21.7187C23.0052 21.807 22.9861 21.8942 22.9507 21.9751C22.9152 22.056 22.864 22.1291 22.8 22.19C22.0529 22.9238 21.0472 23.3345 20 23.3333C18.9528 23.3345 17.9471 22.9238 17.2 22.19C17.136 22.1291 17.0848 22.056 17.0493 21.9751C17.0139 21.8942 16.9948 21.807 16.9933 21.7187C16.9918 21.6304 17.0079 21.5426 17.0406 21.4605C17.0733 21.3785 17.122 21.3037 17.1838 21.2406C17.2457 21.1775 17.3194 21.1274 17.4009 21.093C17.4823 21.0587 17.5697 21.0409 17.658 21.0407C17.7464 21.0404 17.8339 21.0577 17.9155 21.0916C17.9971 21.1255 18.0711 21.1753 18.1333 21.238C18.6312 21.7275 19.3018 22.0012 20 22C20.7267 22 21.3847 21.71 21.8667 21.238ZM17.6667 17.3333C17.9319 17.3333 18.1862 17.4387 18.3738 17.6262C18.5613 17.8138 18.6667 18.0681 18.6667 18.3333C18.6667 18.5985 18.5613 18.8529 18.3738 19.0404C18.1862 19.228 17.9319 19.3333 17.6667 19.3333C17.4015 19.3333 17.1471 19.228 16.9596 19.0404C16.772 18.8529 16.6667 18.5985 16.6667 18.3333C16.6667 18.0681 16.772 17.8138 16.9596 17.6262C17.1471 17.4387 17.4015 17.3333 17.6667 17.3333ZM22.3333 17.3333C22.5985 17.3333 22.8529 17.4387 23.0404 17.6262C23.228 17.8138 23.3333 18.0681 23.3333 18.3333C23.3333 18.5985 23.228 18.8529 23.0404 19.0404C22.8529 19.228 22.5985 19.3333 22.3333 19.3333C22.0681 19.3333 21.8138 19.228 21.6262 19.0404C21.4387 18.8529 21.3333 18.5985 21.3333 18.3333C21.3333 18.0681 21.4387 17.8138 21.6262 17.6262C21.8138 17.4387 22.0681 17.3333 22.3333 17.3333ZM16.6667 14C16.8435 14 17.013 14.0702 17.1381 14.1953C17.2631 14.3203 17.3333 14.4899 17.3333 14.6667C17.3333 14.8435 17.2631 15.013 17.1381 15.1381C17.013 15.2631 16.8435 15.3333 16.6667 15.3333H15.3333V16.6667C15.3333 16.8435 15.2631 17.013 15.1381 17.1381C15.013 17.2631 14.8435 17.3333 14.6667 17.3333C14.4899 17.3333 14.3203 17.2631 14.1953 17.1381C14.0702 17.013 14 16.8435 14 16.6667V15.3333C14 14.9797 14.1405 14.6406 14.3905 14.3905C14.6406 14.1405 14.9797 14 15.3333 14H16.6667ZM24.6667 14C25.0203 14 25.3594 14.1405 25.6095 14.3905C25.8595 14.6406 26 14.9797 26 15.3333V16.6667C26 16.8435 25.9298 17.013 25.8047 17.1381C25.6797 17.2631 25.5101 17.3333 25.3333 17.3333C25.1565 17.3333 24.987 17.2631 24.8619 17.1381C24.7369 17.013 24.6667 16.8435 24.6667 16.6667V15.3333H23.3333C23.1565 15.3333 22.987 15.2631 22.8619 15.1381C22.7369 15.013 22.6667 14.8435 22.6667 14.6667C22.6667 14.4899 22.7369 14.3203 22.8619 14.1953C22.987 14.0702 23.1565 14 23.3333 14H24.6667Z" fill="#040325"/>
</g>
<defs>
<clipPath id="clip0_3369_1680">
<rect width="16" height="16" fill="white" transform="translate(12 12)"/>
</clipPath>
</defs>
</svg>
