<svg width="20" height="12" viewBox="0 0 20 12" fill="none" xmlns="http://www.w3.org/2000/svg">
<path d="M6.51596 4.90304C9.64551 4.90304 11.5174 4.90304 12.1316 4.90304C12.3363 5.98522 12.2925 7.03815 12 8.06183C11.7075 9.05627 11.1957 9.88984 10.4645 10.5625C9.79175 11.1768 8.9728 11.6008 8.00762 11.8348C6.95468 12.0688 5.931 12.0542 4.93657 11.791C4.14687 11.5862 3.43029 11.2206 2.78683 10.6942C2.08488 10.1384 1.54379 9.48036 1.16357 8.71991C0.520108 7.4915 0.34462 6.18996 0.6371 4.8153C0.724845 4.28883 0.900333 3.79161 1.16357 3.32364C1.86552 1.86124 2.99157 0.866807 4.54172 0.340341C5.88713 -0.127628 7.23254 -0.113004 8.57795 0.384213C9.27991 0.647446 9.92336 1.04229 10.5083 1.56876C10.4498 1.6565 10.3475 1.7735 10.2012 1.91974C10.055 2.03673 9.96724 2.12447 9.93799 2.18297C9.821 2.27071 9.63088 2.4462 9.36765 2.70944C9.13367 2.94342 8.95818 3.13353 8.84119 3.27977C8.46096 2.89955 8.02224 2.63632 7.52502 2.49007C6.94006 2.31459 6.3551 2.29996 5.77014 2.4462C5.06818 2.59244 4.4686 2.91417 3.97138 3.41139C3.59116 3.82086 3.29868 4.30346 3.09394 4.85917C2.83071 5.61962 2.83071 6.39469 3.09394 7.18439C3.35717 7.94484 3.82514 8.55905 4.49785 9.02702C4.90732 9.3195 5.34604 9.50961 5.81401 9.59736C6.25273 9.6851 6.73532 9.6851 7.26179 9.59736C7.75901 9.50961 8.19773 9.33412 8.57795 9.07089C9.25066 8.63217 9.64551 8.01796 9.7625 7.22826C8.68032 7.22826 7.59814 7.22826 6.51596 7.22826C6.51596 7.05277 6.51596 6.67255 6.51596 6.08759C6.51596 5.47338 6.51596 5.07853 6.51596 4.90304ZM19.2389 5.03466V6.52631H17.1769V8.54443H15.6852V6.52631H13.6232V5.03466H15.6852V2.97267H17.1769V5.03466H19.2389Z" fill="#040325"/>
</svg>
