<?xml version="1.0" encoding="UTF-8"?>
<svg xmlns="http://www.w3.org/2000/svg" xmlns:xlink="http://www.w3.org/1999/xlink" width="18px" height="18px" viewBox="0 0 18 18" version="1.1">
<g id="surface1">
<path style=" stroke:none;fill-rule:nonzero;fill:rgb(100%,100%,100%);fill-opacity:1;" d="M 5.347656 1.34375 C 5.695312 1.65625 5.722656 2.1875 5.410156 2.535156 L 2.878906 5.347656 C 2.726562 5.519531 2.507812 5.621094 2.273438 5.625 C 2.042969 5.628906 1.820312 5.539062 1.65625 5.378906 L 0.246094 3.972656 C -0.0820312 3.640625 -0.0820312 3.109375 0.246094 2.777344 C 0.574219 2.445312 1.109375 2.445312 1.4375 2.777344 L 2.214844 3.554688 L 4.152344 1.402344 C 4.464844 1.054688 4.996094 1.027344 5.34375 1.339844 Z M 5.347656 6.96875 C 5.695312 7.28125 5.722656 7.8125 5.410156 8.160156 L 2.878906 10.972656 C 2.726562 11.144531 2.507812 11.246094 2.273438 11.25 C 2.042969 11.253906 1.820312 11.164062 1.65625 11.003906 L 0.246094 9.597656 C -0.0859375 9.265625 -0.0859375 8.734375 0.246094 8.40625 C 0.578125 8.078125 1.109375 8.074219 1.4375 8.40625 L 2.214844 9.183594 L 4.152344 7.03125 C 4.464844 6.683594 4.996094 6.65625 5.34375 6.96875 Z M 7.875 3.375 C 7.875 2.753906 8.378906 2.25 9 2.25 L 16.875 2.25 C 17.496094 2.25 18 2.753906 18 3.375 C 18 3.996094 17.496094 4.5 16.875 4.5 L 9 4.5 C 8.378906 4.5 7.875 3.996094 7.875 3.375 Z M 7.875 9 C 7.875 8.378906 8.378906 7.875 9 7.875 L 16.875 7.875 C 17.496094 7.875 18 8.378906 18 9 C 18 9.621094 17.496094 10.125 16.875 10.125 L 9 10.125 C 8.378906 10.125 7.875 9.621094 7.875 9 Z M 5.625 14.625 C 5.625 14.003906 6.128906 13.5 6.75 13.5 L 16.875 13.5 C 17.496094 13.5 18 14.003906 18 14.625 C 18 15.246094 17.496094 15.75 16.875 15.75 L 6.75 15.75 C 6.128906 15.75 5.625 15.246094 5.625 14.625 Z M 1.6875 12.9375 C 2.621094 12.9375 3.375 13.691406 3.375 14.625 C 3.375 15.558594 2.621094 16.3125 1.6875 16.3125 C 0.753906 16.3125 0 15.558594 0 14.625 C 0 13.691406 0.753906 12.9375 1.6875 12.9375 Z M 1.6875 12.9375 "/>
</g>
</svg>
