<svg width="24" height="24" viewBox="0 0 24 24" fill="none" xmlns="http://www.w3.org/2000/svg">
<path d="M17.2017 13.1161C13.9573 11.825 10.2125 14.4011 10.2895 17.8946C10.2818 22.4183 15.8176 24.7062 19.0132 21.5097C21.6403 18.948 20.6114 14.3609 17.2017 13.1161ZM15.0914 17.5016H15.7045C17.388 17.5372 17.464 19.988 15.7909 20.1305C15.7909 20.1305 15.7909 20.4213 15.7909 20.4213C15.7909 20.6374 15.6141 20.8142 15.3979 20.8142C15.1818 20.8142 15.005 20.6374 15.005 20.4213V20.1344H14.168C13.6516 20.124 13.6513 19.3562 14.168 19.3485C14.168 19.3485 15.7045 19.3485 15.7045 19.3485C16.4024 19.3357 16.4018 18.2974 15.7044 18.2875H15.0914C13.4079 18.2519 13.3319 15.8011 15.005 15.6586C15.005 15.6586 15.005 15.3678 15.005 15.3678C15.005 15.1517 15.1818 14.9748 15.3979 14.9748C15.6141 14.9748 15.7909 15.1517 15.7909 15.3678V15.6547H16.6279C17.1442 15.665 17.1446 16.4329 16.6279 16.4406H15.0914C14.3935 16.4533 14.3941 17.4916 15.0914 17.5016Z" fill="white"/>
<path d="M8.33257 13.1986C8.95422 13.1682 9.61718 13.1726 10.2266 13.2183C10.6982 13.2536 11.154 13.3204 11.5941 13.403C11.7828 13.2418 11.9792 13.0886 12.1954 12.951C13.1424 12.3302 14.2545 12.004 15.4059 12.004C16.2098 11.9982 17.0351 12.1737 17.7676 12.4952C18.7772 11.2388 19.3308 9.69438 19.3276 8.07047C19.3415 1.90663 11.8435 -1.32045 7.38548 2.93849C4.41493 5.64979 4.49431 10.6518 7.4642 13.2733C7.81778 13.2301 8.12035 13.2104 8.33257 13.1986ZM15.398 10.3575C15.3424 12.251 12.9337 12.2464 12.8791 10.3575C12.9353 8.46328 15.3413 8.4595 15.398 10.3575ZM13.834 4.54953C14.1001 4.10859 14.7663 4.48669 14.5138 4.94251C14.5138 4.9425 10.6746 11.5914 10.6746 11.5914C10.4093 12.0357 9.74271 11.6479 9.9948 11.1984C9.99479 11.1984 13.834 4.54953 13.834 4.54953ZM10.372 4.35305C12.0341 4.41301 12.0298 7.15925 10.372 7.21773C8.70831 7.16015 8.70493 4.41147 10.372 4.35305Z" fill="white"/>
<path d="M10.3721 6.43187C10.9893 6.40792 10.9927 5.16421 10.3721 5.13904C9.74782 5.156 9.75153 6.41645 10.3721 6.43187Z" fill="white"/>
<path d="M13.665 10.3575C13.6857 11.2018 14.5937 11.2051 14.6121 10.3575C14.5869 9.50188 13.6923 9.50556 13.665 10.3575Z" fill="white"/>
<path d="M10.1442 20.5666C9.46215 20.7285 8.69967 20.6229 8.00255 20.606C6.77521 20.5145 5.43379 20.276 4.38335 19.6668C4.23796 19.5803 4.11224 19.4899 4.0022 19.3995V19.8593C4.0022 21.1482 6.57216 21.8241 9.1107 21.8241C9.73552 21.8241 10.3407 21.7848 10.9065 21.7101C10.6003 21.3618 10.3521 20.9784 10.1442 20.5666Z" fill="white"/>
<path d="M4.78804 18.9948C5.80236 19.57 7.1205 19.769 8.30111 19.8358C8.79678 19.8652 9.33713 19.8669 9.83367 19.8436C9.82581 19.8161 9.814 19.7886 9.80616 19.7611C9.69539 19.4367 9.59629 19.0389 9.55466 18.6726C9.40787 18.6801 9.26131 18.6807 9.11061 18.6805C6.91672 18.6384 5.22644 18.3475 4.0021 17.4309C4.00131 18.0807 3.92391 18.4425 4.78804 18.9948Z" fill="white"/>
<path d="M4.78798 17.026C5.79212 17.6447 7.81233 17.9507 9.50352 17.8866C9.49593 16.7523 9.82592 15.6532 10.4505 14.684C10.59 14.4728 10.7365 14.2759 10.9025 14.0827C10.3095 13.9995 9.72567 13.9659 9.11055 13.9649C7.07614 13.9152 4.01077 14.5811 4.00998 15.8511C3.96054 16.33 4.27433 16.7131 4.78798 17.026Z" fill="white"/>
</svg>
