<svg width="100" height="100" viewBox="0 0 100 100" fill="none" xmlns="http://www.w3.org/2000/svg">
<path d="M49.9838 90.446C44.266 90.4398 38.6149 89.2177 33.4054 86.8608C33.2409 86.7897 33.0921 86.6866 32.9678 86.5574C32.8435 86.4283 32.7462 86.2757 32.6814 86.1086C32.6166 85.9414 32.5858 85.7631 32.5906 85.5839C32.5954 85.4047 32.6359 85.2283 32.7096 85.0649C32.7832 84.9015 32.8887 84.7543 33.0198 84.6321C33.1509 84.5098 33.305 84.4149 33.4731 84.3527C33.6412 84.2906 33.8201 84.2626 33.9991 84.2702C34.1782 84.2779 34.354 84.3211 34.5162 84.3973C39.0337 86.4305 43.9074 87.554 48.859 87.7035C53.8107 87.8531 58.7433 87.0259 63.3752 85.2691C68.0071 83.5123 72.2477 80.8603 75.8547 77.4646C79.4616 74.0689 82.3644 69.996 84.3973 65.4784C87.087 59.4649 88.1626 52.8541 87.5177 46.2981C86.8729 39.7421 84.5301 33.4675 80.7203 28.0932C80.5126 27.8011 80.4294 27.4385 80.4891 27.0851C80.5488 26.7317 80.7464 26.4165 81.0385 26.2088C81.3306 26.0011 81.6933 25.9179 82.0467 25.9776C82.4001 26.0373 82.7153 26.2349 82.923 26.527C87.006 32.287 89.5166 39.012 90.2072 46.0384C90.8978 53.0649 89.7444 60.15 86.8608 66.5946C83.656 73.6935 78.4733 79.7186 71.9332 83.9486C65.3931 88.1786 57.7726 90.4344 49.9838 90.446Z" fill="#040325"/>
<path d="M24.2973 21.9189C24.0227 21.9191 23.7547 21.8356 23.5287 21.6796C23.3028 21.5236 23.1297 21.3025 23.0326 21.0457C22.9355 20.7889 22.9188 20.5086 22.985 20.2421C23.0511 19.9757 23.1968 19.7357 23.4027 19.5541C24.465 18.623 25.5765 17.7496 26.7324 16.9378C27.0251 16.7307 27.388 16.6483 27.7414 16.7087C28.0948 16.7691 28.4097 16.9675 28.6169 17.2601C28.8241 17.5528 28.9065 17.9157 28.846 18.2691C28.7856 18.6225 28.5872 18.9374 28.2946 19.1446C27.215 19.8982 26.1775 20.7102 25.1865 21.577C24.9414 21.7951 24.6254 21.9167 24.2973 21.9189Z" fill="#6C6D84"/>
<circle cx="50.3333" cy="50.3333" r="33.6667" fill="#FFD9C3"/>
<path d="M16.0811 70.7432C15.8432 70.7439 15.6093 70.6818 15.4031 70.5632C15.1969 70.4446 15.0257 70.2736 14.9068 70.0676C9.65426 60.9437 8.19363 50.1224 10.8392 39.9324C10.8804 39.7573 10.9561 39.5921 11.062 39.4466C11.1679 39.3011 11.3018 39.1782 11.4558 39.0851C11.6098 38.9921 11.7808 38.9307 11.9589 38.9046C12.1369 38.8786 12.3184 38.8883 12.4926 38.9333C12.6668 38.9783 12.8303 39.0576 12.9735 39.1667C13.1166 39.2757 13.2365 39.4122 13.3262 39.5682C13.4159 39.7242 13.4735 39.8966 13.4957 40.0751C13.5179 40.2537 13.5042 40.4349 13.4554 40.6081C10.9915 50.1132 12.355 60.2056 17.2527 68.7162C17.3714 68.9217 17.4338 69.1549 17.4337 69.3922C17.4337 69.6295 17.3711 69.8627 17.2524 70.0681C17.1336 70.2736 16.9628 70.4442 16.7572 70.5627C16.5516 70.6812 16.3184 70.7435 16.0811 70.7432Z" fill="#6C6D84"/>
<path d="M15.8635 32.3243C15.6282 32.324 15.397 32.2622 15.1929 32.1451C14.9888 32.028 14.8188 31.8596 14.6997 31.6566C14.5807 31.4536 14.5167 31.223 14.5141 30.9876C14.5116 30.7523 14.5705 30.5204 14.6851 30.3149C15.3514 29.1145 16.0808 27.9502 16.8703 26.827C16.9722 26.6807 17.1021 26.556 17.2525 26.4601C17.4029 26.3642 17.5708 26.2991 17.7465 26.2684C17.9221 26.2377 18.1022 26.2421 18.2761 26.2813C18.4501 26.3205 18.6146 26.3937 18.7601 26.4968C18.9057 26.5999 19.0294 26.7308 19.1241 26.8819C19.2188 27.033 19.2826 27.2014 19.312 27.3773C19.3413 27.5532 19.3355 27.7332 19.295 27.9069C19.2544 28.0805 19.1799 28.2445 19.0757 28.3892C18.3428 29.4335 17.6662 30.5161 17.0487 31.6324C16.9309 31.8431 16.7589 32.0183 16.5505 32.14C16.342 32.2617 16.1049 32.3253 15.8635 32.3243Z" fill="#6C6D84"/>
<path d="M66.0405 15.7162C65.8495 15.7165 65.6606 15.6759 65.4865 15.5973C56.4842 11.5246 46.2397 11.1634 36.973 14.5919C36.638 14.7098 36.27 14.6911 35.9487 14.5398C35.6274 14.3885 35.3785 14.1168 35.256 13.7834C35.1335 13.4501 35.1471 13.0819 35.2939 12.7585C35.4407 12.4351 35.7089 12.1826 36.0405 12.0554C45.9685 8.38205 56.9444 8.77049 66.5878 13.1365C66.8698 13.2633 67.0997 13.4829 67.2393 13.7588C67.3789 14.0346 67.4196 14.35 67.3548 14.6523C67.29 14.9545 67.1235 15.2254 66.8831 15.4198C66.6427 15.6142 66.3429 15.7202 66.0338 15.7203L66.0405 15.7162Z" fill="#040325"/>
<path d="M55.7284 19.6419C55.4117 19.6425 55.1048 19.5319 54.8614 19.3293C54.6179 19.1268 54.4533 18.8451 54.3964 18.5336C54.3394 18.2221 54.3937 17.9004 54.5497 17.6248C54.7057 17.3492 54.9536 17.1372 55.25 17.0257L64.3041 13.5919L60.8689 4.53784C60.7421 4.20255 60.7536 3.8306 60.9009 3.50381C61.0483 3.17701 61.3195 2.92214 61.6547 2.79527C61.99 2.6684 62.362 2.67991 62.6888 2.82728C63.0156 2.97465 63.2704 3.2458 63.3973 3.58108L67.3095 13.9027C67.4363 14.2376 67.425 14.6092 67.2781 14.9359C67.1311 15.2625 66.8605 15.5174 66.5257 15.6446L56.2041 19.5635C56.0516 19.6183 55.8904 19.6449 55.7284 19.6419Z" fill="#040325"/>
<path d="M37.8635 97.2973C37.589 97.2975 37.3209 97.2141 37.0949 97.0581C36.8689 96.9022 36.6958 96.6811 36.5986 96.4243L32.6865 86.1027C32.5596 85.7678 32.5709 85.3962 32.7179 85.0695C32.8648 84.7429 33.1355 84.488 33.4703 84.3608L43.7919 80.4419C43.9583 80.3769 44.1359 80.3454 44.3144 80.3495C44.493 80.3535 44.669 80.3929 44.8323 80.4654C44.9955 80.5379 45.1428 80.6421 45.2656 80.7718C45.3883 80.9016 45.4841 81.0544 45.5475 81.2214C45.6108 81.3884 45.6404 81.5664 45.6345 81.7449C45.6286 81.9234 45.5874 82.099 45.5133 82.2615C45.4391 82.424 45.3335 82.5702 45.2025 82.6916C45.0714 82.8131 44.9177 82.9073 44.75 82.9689L35.6959 86.4027L39.1311 95.4568C39.2109 95.6622 39.2392 95.884 39.2136 96.1028C39.188 96.3217 39.1093 96.531 38.9843 96.7124C38.8594 96.8939 38.6919 97.0421 38.4965 97.144C38.3012 97.246 38.0839 97.2986 37.8635 97.2973Z" fill="#040325"/>
<rect x="36.6667" y="46" width="29.3333" height="18" fill="#55ACEE"/>
<path d="M64.9622 66.0946H37.7406C37.0206 66.0939 36.3305 65.8074 35.8216 65.2981C35.3128 64.7888 35.027 64.0983 35.027 63.3784V47.4459C35.027 46.726 35.3128 46.0356 35.8216 45.5262C36.3305 45.0169 37.0206 44.7304 37.7406 44.7297H64.9622C65.6821 44.7304 66.3723 45.0169 66.8811 45.5262C67.3899 46.0356 67.6757 46.726 67.6757 47.4459V63.3784C67.6757 64.0983 67.3899 64.7888 66.8811 65.2981C66.3723 65.8074 65.6821 66.0939 64.9622 66.0946ZM37.7406 47.4324L37.7297 47.4419V63.3784L64.9622 63.3878L64.973 47.4419L37.7406 47.4324Z" fill="#040325"/>
<path d="M60.8797 47.4324H41.8257C41.4673 47.4324 41.1236 47.2901 40.8701 47.0366C40.6167 46.7832 40.4743 46.4395 40.4743 46.0811V37.9176C40.5193 35.0621 41.6853 32.3389 43.7204 30.3355C45.7556 28.3322 48.4969 27.2093 51.3527 27.2093C54.2085 27.2093 56.9498 28.3322 58.985 30.3355C61.0202 32.3389 62.1861 35.0621 62.2311 37.9176V46.0811C62.2311 46.4395 62.0887 46.7832 61.8353 47.0366C61.5819 47.2901 61.2381 47.4324 60.8797 47.4324ZM43.177 44.7297H59.5284V37.9176C59.4894 35.775 58.6109 33.7333 57.0819 32.2319C55.5529 30.7304 53.4956 29.8892 51.3527 29.8892C49.2098 29.8892 47.1525 30.7304 45.6235 32.2319C44.0945 33.7333 43.216 35.775 43.177 37.9176V44.7297Z" fill="#040325"/>
<path d="M51.3514 58.3784C50.993 58.3784 50.6492 58.236 50.3958 57.9826C50.1424 57.7292 50 57.3854 50 57.027V53.7973C50 53.4389 50.1424 53.0952 50.3958 52.8418C50.6492 52.5883 50.993 52.446 51.3514 52.446C51.7098 52.446 52.0535 52.5883 52.3069 52.8418C52.5603 53.0952 52.7027 53.4389 52.7027 53.7973V57.027C52.7027 57.3854 52.5603 57.7292 52.3069 57.9826C52.0535 58.236 51.7098 58.3784 51.3514 58.3784Z" fill="#040325"/>
</svg>
