<svg width="40" height="40" viewBox="0 0 40 40" fill="none" xmlns="http://www.w3.org/2000/svg">
<rect width="40" height="40" rx="20" fill="#FFF7F2"/>
<path d="M21.2469 18.3781C21.2469 18.4776 21.2864 18.573 21.3567 18.6433C21.427 18.7136 21.5224 18.7531 21.6219 18.7531C21.7213 18.7531 21.8167 18.7136 21.887 18.6433C21.9574 18.573 21.9969 18.4776 21.9969 18.3781C21.996 17.9141 21.8337 17.4648 21.5378 17.1074C21.2418 16.7499 20.8307 16.5067 20.3749 16.4193V15.4999C20.373 15.4017 20.3326 15.3083 20.2625 15.2395C20.1924 15.1708 20.0981 15.1323 19.9999 15.1323C19.9017 15.1323 19.8075 15.1708 19.7374 15.2396C19.6673 15.3083 19.6269 15.4018 19.6249 15.4999V16.4193C19.1689 16.506 18.7574 16.7491 18.4613 17.1066C18.1653 17.4642 18.0033 17.9139 18.0033 18.3781C18.0033 18.8423 18.1653 19.292 18.4613 19.6496C18.7574 20.0072 19.1689 20.2503 19.6249 20.337V22.8045C19.3729 22.7254 19.1526 22.5681 18.9959 22.3555C18.8392 22.1428 18.7543 21.8858 18.7533 21.6217C18.7533 21.5222 18.7138 21.4268 18.6435 21.3565C18.5732 21.2862 18.4778 21.2467 18.3783 21.2467C18.2789 21.2467 18.1835 21.2862 18.1132 21.3565C18.0429 21.4268 18.0033 21.5222 18.0033 21.6217C18.0042 22.0857 18.1664 22.5349 18.4623 22.8923C18.7582 23.2498 19.1692 23.4931 19.6249 23.5805V24.4999C19.6249 24.5993 19.6644 24.6947 19.7348 24.7651C19.8051 24.8354 19.9005 24.8749 19.9999 24.8749C20.0994 24.8749 20.1948 24.8354 20.2651 24.7651C20.3354 24.6947 20.3749 24.5993 20.3749 24.4999V23.5805C20.8277 23.4898 21.235 23.2451 21.5277 22.888C21.8204 22.5308 21.9803 22.0834 21.9803 21.6216C21.9803 21.1599 21.8204 20.7124 21.5277 20.3553C21.235 19.9982 20.8276 19.7535 20.3749 19.6628L20.3749 17.1953C20.627 17.2743 20.8474 17.4315 21.0042 17.6442C21.161 17.8569 21.246 18.1139 21.2469 18.3781ZM19.6249 19.5609C19.3724 19.4826 19.1516 19.3255 18.9948 19.1127C18.838 18.8999 18.7533 18.6425 18.7533 18.3781C18.7533 18.1137 18.838 17.8563 18.9948 17.6435C19.1516 17.4307 19.3724 17.2736 19.6249 17.1953V19.5609ZM20.3749 20.4388C20.6275 20.5171 20.8484 20.6741 21.0053 20.8869C21.1622 21.0998 21.2469 21.3572 21.2469 21.6217C21.2469 21.8861 21.1622 22.1436 21.0053 22.3564C20.8484 22.5692 20.6275 22.7263 20.3749 22.8045V20.4388Z" fill="#040325" stroke="#040325" stroke-width="0.2"/>
<path d="M24.8573 9.5H15.1425C14.7448 9.50042 14.3635 9.6586 14.0823 9.93981C13.8011 10.221 13.6429 10.6023 13.6425 11V29C13.6429 29.3977 13.8011 29.779 14.0823 30.0602C14.3635 30.3414 14.7448 30.4996 15.1425 30.5H24.8573C25.255 30.4996 25.6363 30.3414 25.9175 30.0602C26.1987 29.779 26.3569 29.3977 26.3573 29V11C26.3569 10.6023 26.1987 10.221 25.9175 9.93981C25.6363 9.65859 25.255 9.50042 24.8573 9.5ZM22.0181 10.25L21.6431 11H18.3567L17.9817 10.25H22.0181ZM25.6073 29C25.6071 29.1988 25.528 29.3895 25.3874 29.5301C25.2468 29.6707 25.0562 29.7498 24.8573 29.75H15.1425C14.9436 29.7498 14.753 29.6707 14.6124 29.5301C14.4718 29.3895 14.3927 29.1988 14.3925 29V11C14.3927 10.8012 14.4718 10.6105 14.6124 10.4699C14.753 10.3293 14.9436 10.2502 15.1425 10.25H17.1431L17.7895 11.5427C17.8206 11.605 17.8685 11.6574 17.9278 11.694C17.987 11.7306 18.0553 11.75 18.1249 11.75H21.8749C21.9446 11.75 22.0128 11.7306 22.0721 11.694C22.1313 11.6574 22.1792 11.605 22.2104 11.5427L22.8567 10.25H24.8573C25.0562 10.2502 25.2468 10.3293 25.3874 10.4699C25.528 10.6105 25.6071 10.8012 25.6073 11L25.6073 29Z" fill="#040325" stroke="#040325" stroke-width="0.2"/>
</svg>
