<svg width="40" height="40" viewBox="0 0 40 40" fill="none" xmlns="http://www.w3.org/2000/svg">
<rect width="40" height="40" rx="20" fill="#FFF7F2"/>
<path fill-rule="evenodd" clip-rule="evenodd" d="M28.661 21.39C27.9942 25.5709 24.368 28.7708 20 28.7708C15.9162 28.7708 12.4805 25.974 11.5059 22.1929C11.4282 21.8921 11.1215 21.711 10.8207 21.7886C10.52 21.8659 10.3389 22.173 10.4165 22.4738C11.5164 26.7398 15.3924 29.8958 20 29.8958C25.0486 29.8958 29.2194 26.1068 29.8212 21.219L30.1175 21.4939C30.3455 21.7046 30.7014 21.6911 30.9125 21.4635C31.1236 21.2359 31.1101 20.8796 30.8825 20.6685L29.7159 19.5874C29.4999 19.3875 29.1665 19.3875 28.9509 19.5874L27.7842 20.6685C27.5566 20.8796 27.5431 21.2359 27.7542 21.4635C27.965 21.6911 28.3212 21.7046 28.5489 21.4939L28.661 21.39ZM19.4375 16.0624C18.8405 16.0624 18.2682 16.2994 17.8464 16.7213C17.4245 17.1431 17.1875 17.7154 17.1875 18.312V18.3128C17.1875 18.9094 17.4245 19.4816 17.8464 19.9035C18.2682 20.3254 18.8405 20.5624 19.4371 20.5624L19.4375 22.8124H18.2C17.8895 22.8124 17.6375 23.0644 17.6375 23.3749C17.6375 23.6854 17.8895 23.9374 18.2 23.9374H19.4375V24.4999C19.4375 24.8104 19.6895 25.0624 20 25.0624C20.3105 25.0624 20.5625 24.8104 20.5625 24.4999V23.9374C21.1591 23.9374 21.7317 23.7004 22.1536 23.2785C22.5755 22.8566 22.8125 22.2844 22.8125 21.6878C22.8125 21.6874 22.8125 21.6874 22.8125 21.687C22.8125 21.0904 22.5755 20.5181 22.1536 20.0963C21.7317 19.6744 21.1595 19.4374 20.5629 19.4374L20.5625 17.1874H21.8C22.1105 17.1874 22.3625 16.9354 22.3625 16.6249C22.3625 16.3144 22.1105 16.0624 21.8 16.0624H20.5625V15.4999C20.5625 15.1894 20.3105 14.9374 20 14.9374C19.6895 14.9374 19.4375 15.1894 19.4375 15.4999V16.0624ZM20.5625 20.5624V22.8124C20.8606 22.8124 21.1471 22.6939 21.3582 22.4831C21.569 22.272 21.6875 21.9859 21.6875 21.6878C21.6875 21.6874 21.6875 21.6874 21.6875 21.687C21.6875 21.3889 21.569 21.1028 21.3582 20.8916C21.1471 20.6809 20.8606 20.5624 20.5625 20.5624ZM10.1787 18.7808L9.8825 18.5059C9.6545 18.2951 9.29862 18.3086 9.0875 18.5363C8.87637 18.7639 8.88987 19.1201 9.1175 19.3313L10.2841 20.4124C10.5001 20.6123 10.8335 20.6123 11.0491 20.4124L12.2157 19.3313C12.4434 19.1201 12.4569 18.7639 12.2457 18.5363C12.035 18.3086 11.6787 18.2951 11.4511 18.5059L11.339 18.6098C12.0057 14.4289 15.632 11.229 20 11.229C24.0837 11.229 27.5195 14.0258 28.4941 17.8069C28.5717 18.1076 28.8785 18.2888 29.1792 18.2111C29.48 18.1339 29.6611 17.8268 29.5835 17.526C28.4836 13.26 24.6076 10.104 20 10.104C14.9514 10.104 10.7806 13.893 10.1787 18.7808ZM19.4375 17.1874C19.1394 17.1874 18.8529 17.3059 18.6417 17.5166C18.431 17.7278 18.3125 18.0139 18.3125 18.312V18.3128C18.3125 18.6109 18.431 18.897 18.6417 19.1081C18.8529 19.3189 19.139 19.4374 19.4371 19.4374L19.4375 17.1874Z" fill="#040325"/>
</svg>
