<svg width="40" height="40" viewBox="0 0 40 40" fill="none" xmlns="http://www.w3.org/2000/svg">
<rect width="40" height="40" rx="20" fill="#FFF7F2"/>
<path d="M28.64 11.8401H11.36C10.9781 11.8401 10.6118 11.9918 10.3418 12.2619C10.0717 12.5319 9.92 12.8982 9.92 13.2801V26.7201C9.92 27.102 10.0717 27.4683 10.3418 27.7383C10.6118 28.0084 10.9781 28.1601 11.36 28.1601H28.64C29.0219 28.1601 29.3882 28.0084 29.6582 27.7383C29.9283 27.4683 30.08 27.102 30.08 26.7201V13.2801C30.08 12.8982 29.9283 12.5319 29.6582 12.2619C29.3882 11.9918 29.0219 11.8401 28.64 11.8401ZM29.12 26.7201C29.12 26.8474 29.0694 26.9695 28.9794 27.0595C28.8894 27.1495 28.7673 27.2001 28.64 27.2001H11.36C11.2327 27.2001 11.1106 27.1495 11.0206 27.0595C10.9306 26.9695 10.88 26.8474 10.88 26.7201V13.2801C10.88 13.1528 10.9306 13.0307 11.0206 12.9407C11.1106 12.8507 11.2327 12.8001 11.36 12.8001H28.64C28.7673 12.8001 28.8894 12.8507 28.9794 12.9407C29.0694 13.0307 29.12 13.1528 29.12 13.2801V26.7201ZM15.68 19.5201V17.6001C15.9301 17.6139 16.1664 17.7195 16.3435 17.8966C16.5206 18.0737 16.6262 18.31 16.64 18.5601C16.64 18.6874 16.6906 18.8095 16.7806 18.8995C16.8706 18.9895 16.9927 19.0401 17.12 19.0401C17.2473 19.0401 17.3694 18.9895 17.4594 18.8995C17.5494 18.8095 17.6 18.6874 17.6 18.5601C17.5855 18.0555 17.3786 17.5755 17.0216 17.2185C16.6646 16.8615 16.1846 16.6546 15.68 16.6401V16.1601C15.68 16.0328 15.6294 15.9107 15.5394 15.8207C15.4494 15.7307 15.3273 15.6801 15.2 15.6801C15.0727 15.6801 14.9506 15.7307 14.8606 15.8207C14.7706 15.9107 14.72 16.0328 14.72 16.1601V16.6401C14.2161 16.6569 13.7374 16.8645 13.3809 17.221C13.0244 17.5775 12.8168 18.0562 12.8 18.5601C12.8 19.0693 13.0023 19.5577 13.3624 19.9177C13.7224 20.2778 14.2108 20.4801 14.72 20.4801V22.4001C14.4654 22.4001 14.2212 22.2989 14.0412 22.1189C13.8611 21.9389 13.76 21.6947 13.76 21.4401C13.76 21.3128 13.7094 21.1907 13.6194 21.1007C13.5294 21.0107 13.4073 20.9601 13.28 20.9601C13.1527 20.9601 13.0306 21.0107 12.9406 21.1007C12.8506 21.1907 12.8 21.3128 12.8 21.4401C12.8122 21.9455 13.0184 22.4268 13.3758 22.7842C13.7333 23.1417 14.2146 23.3479 14.72 23.3601V23.8497C14.72 23.977 14.7706 24.0991 14.8606 24.1891C14.9506 24.2791 15.0727 24.3297 15.2 24.3297C15.3273 24.3297 15.4494 24.2791 15.5394 24.1891C15.6294 24.0991 15.68 23.977 15.68 23.8497V23.3601C16.1892 23.3601 16.6776 23.1578 17.0376 22.7977C17.3977 22.4377 17.6 21.9493 17.6 21.4401C17.6 20.9309 17.3977 20.4425 17.0376 20.0824C16.6776 19.7224 16.1892 19.5201 15.68 19.5201ZM13.76 18.5601C13.76 18.3055 13.8611 18.0613 14.0412 17.8813C14.2212 17.7012 14.4654 17.6001 14.72 17.6001V19.5201C14.4654 19.5201 14.2212 19.4189 14.0412 19.2389C13.8611 19.0589 13.76 18.8147 13.76 18.5601ZM15.68 22.4001V20.4801C15.9346 20.4801 16.1788 20.5812 16.3588 20.7613C16.5389 20.9413 16.64 21.1855 16.64 21.4401C16.64 21.6947 16.5389 21.9389 16.3588 22.1189C16.1788 22.2989 15.9346 22.4001 15.68 22.4001ZM27.2 20.0001C27.2 20.1274 27.1494 20.2495 27.0594 20.3395C26.9694 20.4295 26.8473 20.4801 26.72 20.4801H20C19.8727 20.4801 19.7506 20.4295 19.6606 20.3395C19.5706 20.2495 19.52 20.1274 19.52 20.0001C19.52 19.8728 19.5706 19.7507 19.6606 19.6607C19.7506 19.5707 19.8727 19.5201 20 19.5201H26.72C26.8473 19.5201 26.9694 19.5707 27.0594 19.6607C27.1494 19.7507 27.2 19.8728 27.2 20.0001ZM27.2 17.1201C27.2 17.2474 27.1494 17.3695 27.0594 17.4595C26.9694 17.5495 26.8473 17.6001 26.72 17.6001H20C19.8727 17.6001 19.7506 17.5495 19.6606 17.4595C19.5706 17.3695 19.52 17.2474 19.52 17.1201C19.52 16.9928 19.5706 16.8707 19.6606 16.7807C19.7506 16.6907 19.8727 16.6401 20 16.6401H26.72C26.8473 16.6401 26.9694 16.6907 27.0594 16.7807C27.1494 16.8707 27.2 16.9928 27.2 17.1201ZM27.2 22.8801C27.2 23.0074 27.1494 23.1295 27.0594 23.2195C26.9694 23.3095 26.8473 23.3601 26.72 23.3601H20C19.8727 23.3601 19.7506 23.3095 19.6606 23.2195C19.5706 23.1295 19.52 23.0074 19.52 22.8801C19.52 22.7528 19.5706 22.6307 19.6606 22.5407C19.7506 22.4507 19.8727 22.4001 20 22.4001H26.72C26.8473 22.4001 26.9694 22.4507 27.0594 22.5407C27.1494 22.6307 27.2 22.7528 27.2 22.8801Z" fill="#040325"/>
</svg>
