<svg width="52" height="52" viewBox="0 0 52 52" fill="none" xmlns="http://www.w3.org/2000/svg">
<path d="M10 26C10 17.1634 17.1634 10 26 10C34.8366 10 42 17.1634 42 26C42 34.8366 34.8366 42 26 42C17.1634 42 10 34.8366 10 26ZM26 2C12.7452 2 2 12.7452 2 26C2 39.2548 12.7452 50 26 50C39.2548 50 50 39.2548 50 26C50 12.7452 39.2548 2 26 2Z" fill="#6C6D84" fill-opacity="0.1" stroke="white" stroke-width="4"/>
<path d="M26 46C37.0457 46 46 37.0457 46 26C46 14.9543 37.0457 6 26 6" stroke="#FF8A71" stroke-width="4" stroke-linecap="round"/>
<g clip-path="url(#clip0_521_4685)">
<path d="M32.8574 23.8848H32.5899C32.2035 22.8743 31.5463 21.9595 30.6646 21.2198C30.6646 21.2165 30.6646 21.2165 30.6646 21.2132C30.5325 20.7541 30.6316 20.2621 30.9519 19.7502C31.117 19.486 31.1269 19.1657 30.975 18.8949C30.8264 18.6274 30.5457 18.459 30.2419 18.459C30.2056 18.459 30.1692 18.4623 30.1362 18.4656C28.911 18.6175 28.1779 19.1756 27.7552 19.6941C27.0221 19.4926 26.2625 19.3903 25.4898 19.3903C23.4985 19.3903 21.626 20.0705 20.2126 21.3056C18.786 22.5539 18 24.2183 18 25.9917C18 26.4507 18.0528 26.9098 18.1618 27.3589C18.1618 27.3655 18.1651 27.3754 18.1684 27.382C18.1684 27.382 18.1717 27.3886 18.175 27.4018C18.2873 27.8542 18.4524 28.2968 18.6671 28.7162C19.0204 29.4856 19.4464 30.1263 19.9253 30.6216C20.6056 31.3217 20.7212 32.2068 20.7377 32.5634V32.7384C20.7377 32.7484 20.7377 32.7583 20.7377 32.7715C20.7377 32.788 20.7377 32.8045 20.741 32.8177C20.7806 33.2239 21.1273 33.5376 21.5368 33.5376H23.9971C24.4363 33.5376 24.7963 33.1777 24.7963 32.7384V32.5733C25.1794 32.6031 25.5657 32.6097 25.9521 32.5898V32.7418C25.9521 33.181 26.3121 33.5409 26.7513 33.5409H29.2116C29.6508 33.5409 30.0107 33.181 30.0107 32.7418V32.1407C30.014 31.9987 30.0702 31.325 30.7075 30.7438C30.7373 30.7174 30.7703 30.691 30.8 30.6646C30.8033 30.6613 30.8033 30.6613 30.8066 30.658C30.8132 30.6513 30.8231 30.6447 30.8297 30.6381C31.6553 29.8984 32.2729 28.9969 32.6295 28.0128H32.8607C33.4881 28.0128 34 27.5009 34 26.8734V25.0373C33.9967 24.3967 33.4848 23.8848 32.8574 23.8848ZM33.2041 26.8602C33.2041 27.0518 33.0489 27.207 32.8574 27.207H32.3422C32.1672 27.207 32.0153 27.3193 31.9624 27.4877C31.6685 28.4454 31.0873 29.3304 30.2848 30.047C30.2815 30.0503 30.2815 30.0503 30.2782 30.0536L30.2749 30.0569C30.2452 30.0833 30.2155 30.1098 30.1858 30.1362C30.1825 30.1395 30.1792 30.1428 30.1759 30.1428C29.3106 30.9287 29.2215 31.8534 29.2149 32.1176C29.2149 32.1209 29.2149 32.1242 29.2149 32.1275V32.7351C29.2149 32.7384 29.2116 32.7418 29.2083 32.7418H26.748C26.7447 32.7418 26.7414 32.7384 26.7414 32.7351V32.1572C26.7414 32.045 26.6952 31.9393 26.6093 31.8633C26.5366 31.7973 26.4409 31.7609 26.3451 31.7609C26.3319 31.7609 26.3187 31.7609 26.3022 31.7642C26.0314 31.794 25.7573 31.8072 25.4865 31.8072C25.1397 31.8072 24.7897 31.7841 24.4495 31.7378C24.3373 31.7213 24.2217 31.7576 24.1358 31.8336C24.0499 31.9096 24.0004 32.0185 24.0004 32.1308V32.7351C24.0004 32.7384 23.9971 32.7418 23.9938 32.7418H21.5335C21.5302 32.7418 21.5269 32.7384 21.5269 32.7351V32.5502C21.5269 32.5436 21.5269 32.537 21.5269 32.5337C21.5071 32.0912 21.3684 30.9684 20.49 30.0668C20.0706 29.6342 19.6941 29.0662 19.3738 28.376C19.3705 28.3694 19.3705 28.3661 19.3672 28.3628C19.1789 27.9929 19.0303 27.6066 18.9346 27.2103C18.9346 27.207 18.9313 27.2037 18.9313 27.2004C18.9313 27.1971 18.9313 27.1971 18.9313 27.1938C18.8355 26.8008 18.7893 26.3979 18.7893 25.9983C18.7893 22.795 21.7944 20.1861 25.4865 20.1861C26.2757 20.1861 27.0452 20.305 27.7783 20.5362C27.9467 20.589 28.1284 20.5263 28.2275 20.381C28.5214 19.9451 29.1059 19.4002 30.2287 19.2582C30.2551 19.2549 30.2716 19.2714 30.2782 19.2846C30.2914 19.3077 30.2815 19.3275 30.2749 19.3341C29.8357 20.0342 29.7069 20.7607 29.8985 21.4344C29.8985 21.4377 29.9018 21.4443 29.9018 21.4476C29.9051 21.5632 29.9579 21.6722 30.0504 21.7448C30.9486 22.4714 31.5992 23.3927 31.9327 24.4099C31.9856 24.5717 32.1375 24.684 32.3092 24.684H32.3125H32.8541C33.0456 24.684 33.2008 24.8392 33.2008 25.0307V26.8602H33.2041Z" fill="#FF8A71"/>
<path d="M25.9191 25.5955H25.034C24.717 25.5955 24.4594 25.3379 24.4594 25.0209C24.4594 24.7038 24.717 24.4462 25.034 24.4462H26.5994C26.8173 24.4462 26.9957 24.2679 26.9957 24.05C26.9957 23.832 26.8173 23.6537 26.5994 23.6537H25.8762V23.122C25.8762 22.904 25.6978 22.7257 25.4799 22.7257C25.2619 22.7257 25.0836 22.904 25.0836 23.122V23.6537H25.0373C24.2844 23.6537 23.6702 24.2679 23.6702 25.0209C23.6702 25.7738 24.2844 26.388 25.0373 26.388H25.9224C26.2394 26.388 26.497 26.6456 26.497 26.9627C26.497 27.2797 26.2394 27.5373 25.9224 27.5373H24.3306C24.1127 27.5373 23.9344 27.7156 23.9344 27.9336C23.9344 28.1515 24.1127 28.3298 24.3306 28.3298H25.0836V28.8714C25.0836 29.0894 25.2619 29.2677 25.4799 29.2677C25.6978 29.2677 25.8762 29.0894 25.8762 28.8714V28.3298H25.9323C25.9356 28.3298 25.9389 28.3298 25.9422 28.3298C26.6885 28.3199 27.2929 27.709 27.2929 26.9627C27.2863 26.2097 26.672 25.5955 25.9191 25.5955Z" fill="#FF8A71"/>
</g>
<defs>
<clipPath id="clip0_521_4685">
<rect width="16" height="16" fill="white" transform="translate(18 18)"/>
</clipPath>
</defs>
</svg>
