<svg width="40" height="40" viewBox="0 0 40 40" fill="none" xmlns="http://www.w3.org/2000/svg">
<rect width="40" height="40" rx="20" fill="#FFD9C3"/>
<path d="M20.0122 26C19.582 26 19.2333 25.6513 19.2333 25.2211V20.6937H14.7546C14.3378 20.6937 14 20.3559 14 19.9391V19.9391C14 19.5224 14.3378 19.1846 14.7546 19.1846H19.2333V14.7789C19.2333 14.3487 19.582 14 20.0122 14V14C20.4423 14 20.7911 14.3487 20.7911 14.7789V19.1846H25.2698C25.6865 19.1846 26.0243 19.5224 26.0243 19.9391V19.9391C26.0243 20.3559 25.6865 20.6937 25.2698 20.6937H20.7911V25.2211C20.7911 25.6513 20.4423 26 20.0122 26V26Z" fill="#040325"/>
</svg>
