<svg width="16" height="16" viewBox="0 0 16 16" fill="none" xmlns="http://www.w3.org/2000/svg">
<path fill-rule="evenodd" clip-rule="evenodd" d="M7.33333 2.5C4.66396 2.5 2.5 4.66396 2.5 7.33333C2.5 10.0027 4.66396 12.1667 7.33333 12.1667C10.0027 12.1667 12.1667 10.0027 12.1667 7.33333C12.1667 4.66396 10.0027 2.5 7.33333 2.5ZM1.5 7.33333C1.5 4.11167 4.11167 1.5 7.33333 1.5C10.555 1.5 13.1667 4.11167 13.1667 7.33333C13.1667 10.555 10.555 13.1667 7.33333 13.1667C4.11167 13.1667 1.5 10.555 1.5 7.33333Z" fill="#040325"/>
<path fill-rule="evenodd" clip-rule="evenodd" d="M10.6286 10.6286C10.889 10.3683 11.3111 10.3683 11.5714 10.6286L14.4714 13.5286C14.7318 13.789 14.7318 14.2111 14.4714 14.4714C14.2111 14.7318 13.789 14.7318 13.5286 14.4714L10.6286 11.5714C10.3683 11.3111 10.3683 10.889 10.6286 10.6286Z" fill="#040325"/>
</svg>
