<svg width="40" height="40" viewBox="0 0 40 40" fill="none" xmlns="http://www.w3.org/2000/svg">
<rect width="40" height="40" rx="20" fill="#FFF7F2"/>
<path d="M20.553 16.72V23.28H22.319V21.586H23.371L23.664 21.576C24.243 21.567 24.571 21.556 24.648 21.543C25.304 21.457 25.738 21.125 25.948 20.549C26.054 20.259 26.108 19.78 26.108 19.115C26.108 18.562 26.059 18.147 25.963 17.872C25.778 17.348 25.415 17.001 24.873 16.832C24.637 16.758 24.293 16.721 23.842 16.721L20.553 16.72ZM27.343 16.72L25.372 23.28H27.198L27.515 22.146H29.875L30.212 23.279H32L30.005 16.721L27.343 16.72ZM18.004 16.751C17.3314 16.749 16.6737 16.949 16.116 17.325C15.5822 17.6818 15.1653 18.1878 14.917 18.78H14.175L13.711 19.776H14.68C14.6668 19.9511 14.6681 20.1271 14.684 20.302H14.217L13.752 21.297H14.94C15.204 21.8878 15.6344 22.389 16.1785 22.7393C16.7226 23.0897 17.3569 23.2741 18.004 23.27C18.6714 23.2719 19.3243 23.0756 19.88 22.706L19.893 22.697V21.456L19.843 21.512C19.6127 21.7752 19.3251 21.9823 19.0025 22.1173C18.6798 22.2523 18.3305 22.3117 17.9813 22.291C17.6321 22.2702 17.2923 22.1699 16.9879 21.9976C16.6835 21.8253 16.4225 21.5856 16.225 21.297H18.621L19.086 20.302H15.838C15.8144 20.1276 15.8103 19.9512 15.826 19.776H19.331L19.339 19.759L19.777 18.82L19.796 18.78H16.154C16.3592 18.4429 16.6474 18.164 16.991 17.97C17.3347 17.776 17.7224 17.6734 18.117 17.672C18.811 17.672 19.461 17.982 19.9 18.522L19.928 18.557L20.337 17.682L20.322 17.668C19.6956 17.0763 18.8657 16.748 18.004 16.751ZM10.804 16.755C10.365 16.755 9.967 16.771 9.608 16.803C9.178 16.837 8.823 16.953 8.546 17.151C8.35066 17.2888 8.20649 17.4875 8.136 17.716C8.05 17.964 8.008 18.294 8.008 18.706C8.008 19.246 8.087 19.649 8.244 19.916C8.423 20.23 8.781 20.436 9.318 20.537C9.523 20.572 9.888 20.608 10.412 20.646C11.066 20.69 11.432 20.724 11.51 20.749C11.721 20.812 11.826 20.988 11.826 21.277C11.8289 21.3832 11.8165 21.4893 11.789 21.592C11.7639 21.659 11.7241 21.7196 11.6725 21.7692C11.6209 21.8189 11.5589 21.8564 11.491 21.879C11.407 21.911 11.21 21.927 10.902 21.927H10.298C10.1564 21.9275 10.0164 21.8968 9.888 21.837C9.724 21.756 9.642 21.573 9.642 21.288V21.152H8C8 21.685 8.04 22.067 8.118 22.295C8.26 22.707 8.553 22.98 8.997 23.115C9.359 23.225 10 23.279 10.919 23.279C11.47 23.279 11.879 23.254 12.147 23.204C12.787 23.084 13.197 22.8 13.38 22.351C13.481 22.106 13.531 21.719 13.531 21.191C13.531 20.961 13.521 20.756 13.498 20.574C13.4715 20.2929 13.3456 20.0305 13.143 19.834C12.891 19.592 12.483 19.442 11.923 19.386C11.746 19.367 11.303 19.334 10.593 19.286L10.262 19.263C10.1395 19.26 10.0195 19.2278 9.912 19.169C9.788 19.094 9.727 18.936 9.727 18.698C9.727 18.434 9.797 18.263 9.935 18.184C10.074 18.105 10.358 18.066 10.787 18.066C11.228 18.066 11.497 18.134 11.595 18.271C11.658 18.363 11.69 18.543 11.69 18.813H13.332C13.342 18.668 13.348 18.56 13.348 18.487C13.348 17.603 12.991 17.066 12.276 16.874C11.983 16.795 11.493 16.755 10.804 16.755ZM28.698 18.025L29.525 20.868H27.895L28.698 18.025ZM22.318 18.155H23.434C23.614 18.155 23.728 18.159 23.776 18.165C24.016 18.207 24.169 18.322 24.232 18.51C24.277 18.644 24.299 18.85 24.299 19.127C24.3031 19.2983 24.2921 19.4696 24.266 19.639C24.231 19.811 24.161 19.926 24.056 19.983C23.98 20.025 23.768 20.052 23.419 20.065H22.319L22.318 18.155Z" fill="#040325"/>
</svg>
