<svg width="100" height="100" viewBox="0 0 100 100" fill="none" xmlns="http://www.w3.org/2000/svg">
<circle cx="50.3334" cy="50.3334" r="33.6667" fill="#FFD9C3"/>
<circle cx="50.3333" cy="49.6666" r="24.3333" fill="#55ACEE"/>
<path d="M71.2768 41.1788C71.441 41.5541 71.7461 41.8499 72.1263 42.0025C72.5065 42.155 72.9314 42.1522 73.3095 41.9945C73.6876 41.8369 73.9887 41.537 74.1479 41.1596C74.3071 40.7821 74.3117 40.3572 74.1606 39.9764C62.9494 14.0539 24.6405 21.7527 24.25 50.0003C25.6768 84.4236 74.7513 84.4288 76.1719 49.9998C75.9905 48.3293 76.6468 44.9443 74.1571 45.0621C73.7467 45.12 73.3761 45.3385 73.1268 45.6696C72.8775 46.0007 72.77 46.4173 72.8279 46.8277C73.2618 49.9297 73.0529 53.0877 72.2143 56.1056C71.3758 59.1234 69.9253 61.9364 67.9532 64.3698C65.9812 66.8032 63.5296 68.8049 60.7509 70.2504C57.9723 71.696 54.926 72.5545 51.8014 72.7726C48.6768 72.9906 45.5408 72.5636 42.5883 71.518C39.6358 70.4725 36.93 68.8307 34.639 66.6949C32.348 64.559 30.5209 61.9747 29.2712 59.1026C28.0216 56.2306 27.3761 53.1321 27.3749 50C27.7237 25.1502 61.4143 18.3853 71.2768 41.1788Z" fill="#040325"/>
<path d="M50.212 66.2276C50.4172 66.2277 50.6204 66.1873 50.81 66.1088C50.9996 66.0303 51.1719 65.9152 51.317 65.7701C51.4621 65.625 51.5772 65.4527 51.6557 65.2631C51.7342 65.0735 51.7746 64.8703 51.7745 64.6651V62.8439C53.5304 62.4596 55.0824 61.4399 56.1321 59.9808C57.1818 58.5217 57.6552 56.7261 57.4614 54.9391C57.2676 53.1521 56.4202 51.4998 55.0821 50.2997C53.7439 49.0995 52.0095 48.4363 50.212 48.4374C49.407 48.4374 48.6192 48.2043 47.9439 47.7663C47.2685 47.3282 46.7344 46.704 46.4062 45.9689C46.078 45.2339 45.9697 44.4195 46.0944 43.6242C46.2191 42.8289 46.5714 42.0868 47.1088 41.4874C47.6462 40.8881 48.3457 40.4572 49.1227 40.2468C49.8997 40.0365 50.7211 40.0557 51.4874 40.3021C52.2538 40.5485 52.9324 41.0115 53.4412 41.6353C53.9501 42.2591 54.2674 43.0169 54.3548 43.8171C54.3993 44.2291 54.6057 44.6065 54.9285 44.8663C55.2513 45.1262 55.6641 45.2471 56.076 45.2026C56.488 45.1581 56.8654 44.9517 57.1252 44.6289C57.3851 44.3061 57.506 43.8933 57.4615 43.4813C57.2982 41.9638 56.6608 40.5364 55.6399 39.4018C54.6189 38.2672 53.2664 37.4832 51.7745 37.1612V35.3347C51.7684 34.9243 51.6011 34.5328 51.3088 34.2447C51.0164 33.9566 50.6224 33.7952 50.212 33.7952C49.8016 33.7952 49.4076 33.9566 49.1153 34.2447C48.8229 34.5328 48.6556 34.9243 48.6495 35.3347V37.1557C46.8935 37.5399 45.3415 38.5596 44.2917 40.0187C43.2419 41.4779 42.7684 43.2735 42.9622 45.0606C43.156 46.8476 44.0035 48.5 45.3417 49.7002C46.6799 50.9003 48.4145 51.5635 50.212 51.5623C51.0231 51.5624 51.8165 51.7991 52.495 52.2435C53.1735 52.6879 53.7076 53.3206 54.0318 54.0641C54.356 54.8076 54.4562 55.6295 54.3201 56.4291C54.1841 57.2286 53.8176 57.9711 53.2658 58.5655C52.7139 59.1599 52.0006 59.5803 51.2133 59.7753C50.426 59.9702 49.5989 59.9312 48.8335 59.663C48.068 59.3948 47.3975 58.9091 46.904 58.2654C46.4106 57.6216 46.1157 56.8479 46.0555 56.0391C46.0256 55.6257 45.8326 55.2412 45.5191 54.97C45.2056 54.6989 44.7972 54.5634 44.3839 54.5934C43.9705 54.6234 43.5859 54.8163 43.3148 55.1298C43.0437 55.4433 42.9082 55.8517 42.9382 56.2651C43.0601 57.8279 43.681 59.3102 44.7093 60.4934C45.7376 61.6766 47.1189 62.498 48.6495 62.8366V64.665C48.6495 64.8702 48.6898 65.0734 48.7683 65.2631C48.8468 65.4527 48.9619 65.6249 49.107 65.77C49.2521 65.9152 49.4244 66.0303 49.614 66.1088C49.8036 66.1873 50.0068 66.2276 50.212 66.2276Z" fill="#040325"/>
<path d="M89.4515 61.5784C89.0585 61.4474 88.6297 61.4775 88.2588 61.6619C87.8879 61.8464 87.6052 62.1702 87.4724 62.5626C76.0018 96.5144 28.4867 98.4525 14.1973 65.7663L20.6062 68.1732C20.9927 68.312 21.4183 68.2931 21.791 68.1206C22.1637 67.948 22.4535 67.6358 22.5978 67.2513C22.7422 66.8668 22.7294 66.441 22.5623 66.0658C22.3951 65.6907 22.0871 65.3964 21.7047 65.2466L12.174 61.6678C11.9753 61.5782 11.7607 61.5292 11.5428 61.5236C11.3248 61.5179 11.108 61.5558 10.9049 61.635C10.7018 61.7142 10.5165 61.8332 10.3599 61.9849C10.2034 62.1365 10.0786 62.3179 9.99299 62.5184L6.34993 72.2183C6.21303 72.6042 6.23308 73.0284 6.40575 73.3997C6.57842 73.7709 6.88992 74.0596 7.27323 74.2036C7.65654 74.3475 8.08105 74.3353 8.45542 74.1694C8.82979 74.0036 9.12412 73.6975 9.27508 73.3169L11.506 67.3775C14.9975 75.1636 20.7554 81.7161 28.0281 86.1795C35.3008 90.6429 43.7503 92.8098 52.2735 92.3973C60.7966 91.9848 68.9974 89.012 75.805 83.8671C82.6127 78.7223 87.711 71.6443 90.4342 63.5574C90.5663 63.1647 90.537 62.7355 90.3527 62.3644C90.1684 61.9932 89.8442 61.7105 89.4515 61.5784Z" fill="#040325"/>
<path d="M92.675 25.6105C92.4801 25.5461 92.2744 25.5209 92.0697 25.5361C91.865 25.5514 91.6653 25.6069 91.4821 25.6995C91.2989 25.792 91.1358 25.9198 91.0021 26.0755C90.8683 26.2312 90.7666 26.4118 90.7028 26.6069L88.8048 32.3857C72.9991 -2.37361 22.2363 0.0986924 9.98916 36.4432C9.86305 36.8344 9.89621 37.2596 10.0815 37.6266C10.2667 37.9935 10.5892 38.2726 10.9788 38.4035C11.3685 38.5343 11.7941 38.5063 12.1632 38.3254C12.5324 38.1446 12.8154 37.8256 12.9509 37.4375C24.458 3.38918 72.1593 1.56886 86.319 34.4296L79.5967 32.2206C79.2047 32.0978 78.7801 32.1342 78.4147 32.3221C78.0494 32.5099 77.7728 32.8341 77.6446 33.2244C77.5164 33.6147 77.5471 34.0397 77.73 34.4076C77.9128 34.7754 78.2332 35.0565 78.6217 35.19L88.4658 38.4248C88.8596 38.5421 89.2834 38.5042 89.6501 38.3189C90.0168 38.1336 90.2988 37.815 90.438 37.4284L93.6721 27.5834C93.8015 27.1896 93.7691 26.7604 93.5821 26.3904C93.3951 26.0205 93.0688 25.7399 92.675 25.6105Z" fill="#6C6D84"/>
</svg>
