<svg width="15" height="12" viewBox="0 0 15 12" fill="none" xmlns="http://www.w3.org/2000/svg">
<g clip-path="url(#clip0_508_10687)">
<path d="M13.9035 1.6817C13.6881 1.77726 13.4665 1.85791 13.2402 1.92338C13.5082 1.62034 13.7125 1.26377 13.8372 0.873577C13.8651 0.786115 13.8362 0.690381 13.7643 0.633179C13.6925 0.575933 13.5927 0.569076 13.5137 0.615926C13.033 0.901006 12.5144 1.10588 11.9707 1.22568C11.4229 0.690469 10.679 0.38588 9.90995 0.38588C8.28658 0.38588 6.96585 1.70657 6.96585 3.32989C6.96585 3.45775 6.97394 3.58489 6.98996 3.71027C4.97551 3.5334 3.10271 2.54327 1.81667 0.965728C1.77084 0.9095 1.70023 0.879196 1.62794 0.884991C1.55561 0.890654 1.49062 0.931443 1.45408 0.99413C1.19324 1.4417 1.05535 1.9536 1.05535 2.47443C1.05535 3.18381 1.30862 3.85688 1.75602 4.3828C1.61998 4.33568 1.48797 4.2768 1.36197 4.20686C1.29433 4.16921 1.21178 4.16978 1.14458 4.20832C1.07734 4.24685 1.03518 4.31772 1.03341 4.39518C1.0331 4.40824 1.0331 4.42129 1.0331 4.43451C1.0331 5.49339 1.60299 6.44671 2.47429 6.9663C2.39944 6.95883 2.32463 6.94799 2.2503 6.93379C2.17368 6.91914 2.09489 6.946 2.04322 7.00444C1.99146 7.06283 1.97434 7.14424 1.99818 7.21856C2.32069 8.22545 3.15102 8.96607 4.15482 9.19187C3.32227 9.71332 2.37019 9.98645 1.37073 9.98645C1.16219 9.98645 0.952448 9.9742 0.747176 9.94991C0.645204 9.93779 0.5477 9.998 0.512972 10.095C0.478243 10.192 0.515051 10.3002 0.601805 10.3558C1.88577 11.179 3.37041 11.6142 4.89512 11.6142C7.89253 11.6142 9.76763 10.2007 10.8128 9.01495C12.1161 7.53642 12.8636 5.57939 12.8636 3.64572C12.8636 3.56494 12.8623 3.48336 12.8598 3.40205C13.374 3.01464 13.8167 2.54579 14.177 2.00691C14.2317 1.92506 14.2258 1.8169 14.1624 1.74156C14.0991 1.66617 13.9936 1.6418 13.9035 1.6817Z" fill="#040325"/>
</g>
<defs>
<clipPath id="clip0_508_10687">
<rect width="13.7143" height="12" fill="white" transform="translate(0.5)"/>
</clipPath>
</defs>
</svg>
